<svg xmlns="http://www.w3.org/2000/svg" xmlns:xlink="http://www.w3.org/1999/xlink" width="677.407" height="447.141" viewBox="0 0 677.407 447.141">
  <defs>
    <filter id="Path_6722" x="32.344" y="181.529" width="336.464" height="250.611" filterUnits="userSpaceOnUse">
      <feOffset dy="20" input="SourceAlpha"/>
      <feGaussianBlur stdDeviation="30" result="blur"/>
      <feFlood flood-opacity="0.4"/>
      <feComposite operator="in" in2="blur"/>
      <feComposite in="SourceGraphic"/>
    </filter>
    <filter id="Path_6723" x="0" y="48.151" width="249.562" height="339.973" filterUnits="userSpaceOnUse">
      <feOffset dy="20" input="SourceAlpha"/>
      <feGaussianBlur stdDeviation="30" result="blur-2"/>
      <feFlood flood-opacity="0.4"/>
      <feComposite operator="in" in2="blur-2"/>
      <feComposite in="SourceGraphic"/>
    </filter>
    <filter id="Path_6724" x="279.854" y="0" width="367.341" height="284.137" filterUnits="userSpaceOnUse">
      <feOffset dy="20" input="SourceAlpha"/>
      <feGaussianBlur stdDeviation="35" result="blur-3"/>
      <feFlood flood-opacity="0.4"/>
      <feComposite operator="in" in2="blur-3"/>
      <feComposite in="SourceGraphic"/>
    </filter>
    <filter id="Path_6725" x="42.962" y="15" width="339.38" height="249.392" filterUnits="userSpaceOnUse">
      <feOffset dy="20" input="SourceAlpha"/>
      <feGaussianBlur stdDeviation="30" result="blur-4"/>
      <feFlood flood-opacity="0.4"/>
      <feComposite operator="in" in2="blur-4"/>
      <feComposite in="SourceGraphic"/>
    </filter>
    <filter id="Path_6727" x="394.836" y="47.858" width="282.571" height="367.652" filterUnits="userSpaceOnUse">
      <feOffset dy="20" input="SourceAlpha"/>
      <feGaussianBlur stdDeviation="35" result="blur-5"/>
      <feFlood flood-opacity="0.4"/>
      <feComposite operator="in" in2="blur-5"/>
      <feComposite in="SourceGraphic"/>
    </filter>
    <filter id="Path_6728" x="264.544" y="163.673" width="366.862" height="283.468" filterUnits="userSpaceOnUse">
      <feOffset dy="20" input="SourceAlpha"/>
      <feGaussianBlur stdDeviation="35" result="blur-6"/>
      <feFlood flood-opacity="0.4"/>
      <feComposite operator="in" in2="blur-6"/>
      <feComposite in="SourceGraphic"/>
    </filter>
    <filter id="Path_6819" x="176.958" y="58.487" width="307.516" height="326.583" filterUnits="userSpaceOnUse">
      <feOffset dy="20" input="SourceAlpha"/>
      <feGaussianBlur stdDeviation="30" result="blur-7"/>
      <feFlood flood-opacity="0.4"/>
      <feComposite operator="in" in2="blur-7"/>
      <feComposite in="SourceGraphic"/>
    </filter>
    <filter id="Path_6774" x="147.231" y="29.813" width="366.518" height="386.114" filterUnits="userSpaceOnUse">
      <feOffset dy="20" input="SourceAlpha"/>
      <feGaussianBlur stdDeviation="35" result="blur-8"/>
      <feFlood flood-opacity="0.4"/>
      <feComposite operator="in" in2="blur-8"/>
      <feComposite in="SourceGraphic"/>
    </filter>
  </defs>
  <g id="Group_1464" data-name="Group 1464" transform="translate(-349.612 -2771)">
    <g id="Group_1454" data-name="Group 1454" transform="translate(435 2856)">
      <g id="Group_1445" data-name="Group 1445" transform="translate(4.612 0)">
        <g transform="matrix(1, 0, 0, 1, -90, -85)" filter="url(#Path_6722)">
          <path id="Path_6722-2" data-name="Path 6722" d="M-518.95-402.3h-35.6c-11.357,7.647-22.685,11.99-34.634,11.99a69.736,69.736,0,0,1-50.9-21.977v33.421h-35.329a118.232,118.232,0,0,0,86.226,37.19c26.781,0,49.919-10.292,70.238-25.584Z" transform="translate(797.76 663.81)" fill="#1723a3"/>
        </g>
        <g transform="matrix(1, 0, 0, 1, -90, -85)" filter="url(#Path_6723)">
          <path id="Path_6723-2" data-name="Path 6723" d="M-666.028-464.522v-34.626h.3a69.606,69.606,0,0,1-12.517-39.928,69.718,69.718,0,0,1,20.927-49.885h-33.218v-35.534a118.22,118.22,0,0,0-36.343,85.419A118.063,118.063,0,0,0-700.5-464.522Z" transform="translate(816.87 742.65)" fill="#172192"/>
        </g>
        <g transform="matrix(1, 0, 0, 1, -90, -85)" filter="url(#Path_6724)">
          <path id="Path_6724-2" data-name="Path 6724" d="M-233.713-653.924h6.827v35.457c11.035-6.748,23.02-10.138,38.121-10.138a69.793,69.793,0,0,1,54.008,25.5h34.348v-34.626h0a118.265,118.265,0,0,0-88.358-39.511c-28.773,0-51.033,9.915-68.983,23.315Z" transform="translate(642.6 762.24)" fill="#1529cd"/>
        </g>
        <g transform="matrix(1, 0, 0, 1, -90, -85)" filter="url(#Path_6725)">
          <path id="Path_6725-2" data-name="Path 6725" d="M-658.312-650.007v34.626h34.474a69.615,69.615,0,0,1,40.925-13.224c21.409,0,36.185,7.1,51.107,20.757v-32.731h32.665c-20.465-19.525-47.006-36.661-83.772-36.661a118.086,118.086,0,0,0-75.608,27.233Z" transform="translate(791.48 762.24)" fill="#181f81"/>
        </g>
        <g transform="matrix(1, 0, 0, 1, -90, -85)" filter="url(#Path_6727)">
          <path id="Path_6727-2" data-name="Path 6727" d="M-25.623-601.095v33.105H-61.833A69.607,69.607,0,0,1-50.87-530.383a69.766,69.766,0,0,1-23.937,52.677v34.264h34.614A118.242,118.242,0,0,0-2.235-530.383,118.036,118.036,0,0,0-25.623-601.095Z" transform="translate(574.64 733.95)" fill="#172ee3" opacity="0.995"/>
        </g>
        <g transform="matrix(1, 0, 0, 1, -90, -85)" filter="url(#Path_6728)">
          <path id="Path_6728-2" data-name="Path 6728" d="M-151.815-368.163h-6.827v-35.825A69.605,69.605,0,0,1-197.814-392c-19.916,0-37.76-11.3-52.476-24.833h-31.817v33.887c23.1,23.273,47.638,39.58,84.293,39.58a118.051,118.051,0,0,0,72.569-24.8Z" transform="translate(651.65 665.5)" fill="#0f33ff"/>
        </g>
        <g transform="matrix(1, 0, 0, 1, -90, -85)" filter="url(#Path_6819)">
          <path id="Path_6819-2" data-name="Path 6819" d="M-1591.521-775.179c-3.984-4.806-8.013-9.627-11.939-14.267-5.99-7.079-12.589-14.93-20.038-22.676h-32.6v32.49c9.842,10.182,20.179,23.109,32.9,38.673l2.115,2.588,30.9,37.794c9.683,11.836,13.337,16.29,13.337,16.29,5.651,6.516,11.172,12.808,16.716,18.747V-699.06h31.555c-10.488-10.775-19.025-21.994-25.126-29.536,0,0-3.067-3.86-8.018-10.022Z" transform="translate(1923.05 940.61)" fill="#111c6f"/>
        </g>
        <g transform="matrix(1, 0, 0, 1, -90, -85)" filter="url(#Path_6774)">
          <path id="Path_6774-2" data-name="Path 6774" d="M-359.4-13.559q.9-1.187,1.8-2.351c17.971-23.308,31.555-40.469,46.054-51.492v-33.363h-32.568c-12.651,10.952-23.014,23.315-32.055,34.259-4.975,6.022-9.236,11.3-13.166,16.221l-29.7,36.975h0c-2.932,3.519-6.1,7.279-9.622,11.385-13.965,16.3-26.813,30.33-39.41,40.7h33.3V75.35C-417.194,60.692-401.8,42.547-388,24.655Z" transform="translate(720.3 215.58)" fill="#1727b8"/>
        </g>
      </g>
      <g id="Group_1456" data-name="Group 1456" opacity="0">
        <g id="Group_1446" data-name="Group 1446" transform="translate(93.394 19.175)">
          <path id="Path_6729" data-name="Path 6729" d="M-589.062-634.62a6.681,6.681,0,0,1-2.62-2.485,6.845,6.845,0,0,1-.953-3.592,6.847,6.847,0,0,1,.953-3.592,6.689,6.689,0,0,1,2.62-2.485,7.787,7.787,0,0,1,3.746-.9,7.856,7.856,0,0,1,3.168.616,6.358,6.358,0,0,1,2.379,1.772l-2,1.849a4.308,4.308,0,0,0-3.39-1.579,4.507,4.507,0,0,0-2.234.549,3.9,3.9,0,0,0-1.531,1.532,4.5,4.5,0,0,0-.548,2.234,4.5,4.5,0,0,0,.548,2.235,3.909,3.909,0,0,0,1.531,1.531,4.5,4.5,0,0,0,2.234.549,4.284,4.284,0,0,0,3.39-1.6l2,1.85a6.249,6.249,0,0,1-2.389,1.791,7.928,7.928,0,0,1-3.178.617A7.745,7.745,0,0,1-589.062-634.62Z" transform="translate(592.635 648.247)" fill="#fff"/>
          <path id="Path_6730" data-name="Path 6730" d="M-564.419-631.706a5.08,5.08,0,0,1-2.032-1.9,5.22,5.22,0,0,1-.732-2.754,5.224,5.224,0,0,1,.732-2.754,5.088,5.088,0,0,1,2.032-1.9,6.22,6.22,0,0,1,2.937-.683,6.163,6.163,0,0,1,2.928.683,5.106,5.106,0,0,1,2.022,1.9,5.228,5.228,0,0,1,.732,2.754,5.224,5.224,0,0,1-.732,2.754,5.1,5.1,0,0,1-2.022,1.9,6.149,6.149,0,0,1-2.928.684A6.207,6.207,0,0,1-564.419-631.706Zm4.835-2.561a2.909,2.909,0,0,0,.742-2.09,2.906,2.906,0,0,0-.742-2.089,2.5,2.5,0,0,0-1.9-.78,2.531,2.531,0,0,0-1.907.78,2.883,2.883,0,0,0-.751,2.089,2.887,2.887,0,0,0,.751,2.09,2.535,2.535,0,0,0,1.907.78A2.5,2.5,0,0,0-559.584-634.268Z" transform="translate(580.801 645.469)" fill="#fff"/>
          <path id="Path_6731" data-name="Path 6731" d="M-532.244-648.75v14.292h-2.87v-1.194a3.961,3.961,0,0,1-3.236,1.348,5.374,5.374,0,0,1-2.648-.655,4.685,4.685,0,0,1-1.859-1.868,5.694,5.694,0,0,1-.674-2.812,5.7,5.7,0,0,1,.674-2.812A4.693,4.693,0,0,1-541-644.32a5.387,5.387,0,0,1,2.648-.654,3.941,3.941,0,0,1,3.1,1.251v-5.027Zm-3.7,11.2a2.888,2.888,0,0,0,.751-2.09,2.884,2.884,0,0,0-.751-2.089,2.509,2.509,0,0,0-1.888-.78,2.532,2.532,0,0,0-1.907.78,2.884,2.884,0,0,0-.751,2.089,2.887,2.887,0,0,0,.751,2.09,2.536,2.536,0,0,0,1.907.78A2.513,2.513,0,0,0-535.942-637.549Z" transform="translate(569.803 648.75)" fill="#fff"/>
          <path id="Path_6732" data-name="Path 6732" d="M-507.829-635.511h-7.839a2.442,2.442,0,0,0,1,1.522,3.317,3.317,0,0,0,1.965.558,3.967,3.967,0,0,0,1.435-.241,3.476,3.476,0,0,0,1.165-.761l1.6,1.734a5.371,5.371,0,0,1-4.276,1.676,6.757,6.757,0,0,1-3.1-.684,5.008,5.008,0,0,1-2.08-1.9,5.224,5.224,0,0,1-.732-2.754,5.3,5.3,0,0,1,.722-2.745,5.069,5.069,0,0,1,1.984-1.907,5.831,5.831,0,0,1,2.822-.683,5.784,5.784,0,0,1,2.754.654,4.785,4.785,0,0,1,1.936,1.878,5.6,5.6,0,0,1,.7,2.841Q-507.771-636.262-507.829-635.511Zm-7.03-3.332a2.461,2.461,0,0,0-.847,1.579h5.1a2.486,2.486,0,0,0-.848-1.57,2.533,2.533,0,0,0-1.695-.588A2.59,2.59,0,0,0-514.859-638.843Z" transform="translate(558.254 645.469)" fill="#fff"/>
        </g>
        <g id="Group_1447" data-name="Group 1447" transform="translate(37.912 95.666) rotate(85)">
          <path id="Path_6733" data-name="Path 6733" d="M-722.189-492.979a3.461,3.461,0,0,1,.672,2.165,3.2,3.2,0,0,1-1.414,2.8,7.228,7.228,0,0,1-4.123.979h-7.159v-13.843h6.763a6.62,6.62,0,0,1,3.886.969,3.068,3.068,0,0,1,1.355,2.63,3.374,3.374,0,0,1-.484,1.8,3.388,3.388,0,0,1-1.354,1.246A3.655,3.655,0,0,1-722.189-492.979Zm-8.84-5.488v3.263h3.184a3.215,3.215,0,0,0,1.8-.415,1.385,1.385,0,0,0,.613-1.226,1.361,1.361,0,0,0-.613-1.216,3.282,3.282,0,0,0-1.8-.405Zm5.646,8.6a1.422,1.422,0,0,0,.643-1.285q0-1.72-2.551-1.72h-3.738v3.421h3.738A3.551,3.551,0,0,0-725.383-489.864Z" transform="translate(734.213 502.599)" fill="#fff"/>
          <path id="Path_6734" data-name="Path 6734" d="M-696.4-495.047v10.639h-2.927v-1.266a4.085,4.085,0,0,1-1.463,1.058,4.6,4.6,0,0,1-1.839.366,4.531,4.531,0,0,1-3.323-1.206,4.808,4.808,0,0,1-1.226-3.579v-6.012h3.085v5.557q0,2.571,2.156,2.571a2.318,2.318,0,0,0,1.78-.722,3.047,3.047,0,0,0,.672-2.146v-5.26Z" transform="translate(722.028 499.971)" fill="#fff"/>
          <path id="Path_6735" data-name="Path 6735" d="M-682.487-501.064a1.605,1.605,0,0,1-.534-1.227,1.6,1.6,0,0,1,.534-1.226,1.96,1.96,0,0,1,1.384-.494,2,2,0,0,1,1.384.475,1.52,1.52,0,0,1,.534,1.186,1.679,1.679,0,0,1-.534,1.276,1.934,1.934,0,0,1-1.384.5A1.957,1.957,0,0,1-682.487-501.064Zm-.158,1.977h3.085v10.639h-3.085Z" transform="translate(711.142 504.011)" fill="#fff"/>
          <path id="Path_6736" data-name="Path 6736" d="M-671.5-502.391h3.085v14.674H-671.5Z" transform="translate(705.95 503.281)" fill="#fff"/>
          <path id="Path_6737" data-name="Path 6737" d="M-650.445-502.391v14.674h-2.946v-1.226a4.067,4.067,0,0,1-3.322,1.384,5.519,5.519,0,0,1-2.719-.672,4.808,4.808,0,0,1-1.908-1.918,5.841,5.841,0,0,1-.692-2.887,5.844,5.844,0,0,1,.692-2.887,4.815,4.815,0,0,1,1.908-1.918,5.531,5.531,0,0,1,2.719-.672,4.047,4.047,0,0,1,3.184,1.285v-5.161Zm-3.8,11.5a2.962,2.962,0,0,0,.771-2.146,2.963,2.963,0,0,0-.771-2.146,2.578,2.578,0,0,0-1.938-.8,2.6,2.6,0,0,0-1.958.8,2.963,2.963,0,0,0-.771,2.146,2.962,2.962,0,0,0,.771,2.146,2.6,2.6,0,0,0,1.958.8A2.578,2.578,0,0,0-654.241-490.891Z" transform="translate(701.683 503.281)" fill="#fff"/>
        </g>
        <g id="Group_1448" data-name="Group 1448" transform="matrix(0.588, -0.809, 0.809, 0.588, 222.124, 136.734)">
          <path id="Path_6738" data-name="Path 6738" d="M-400.735-487.982l-2.487-3.593h-2.745v3.593h-2.985v-12.9h5.582a7.172,7.172,0,0,1,2.975.571,4.421,4.421,0,0,1,1.944,1.621,4.467,4.467,0,0,1,.682,2.487,4.377,4.377,0,0,1-.691,2.478,4.378,4.378,0,0,1-1.962,1.594l2.893,4.145Zm-.755-9.884a3.134,3.134,0,0,0-2.045-.58h-2.432v4.5h2.432a3.1,3.1,0,0,0,2.045-.59,2.048,2.048,0,0,0,.7-1.658A2.043,2.043,0,0,0-401.49-497.867Z" transform="translate(408.952 501.653)" fill="#fff"/>
          <path id="Path_6739" data-name="Path 6739" d="M-373.938-489.421h-7.5a2.33,2.33,0,0,0,.958,1.455,3.17,3.17,0,0,0,1.88.534,3.8,3.8,0,0,0,1.372-.23,3.332,3.332,0,0,0,1.115-.728l1.529,1.658a5.138,5.138,0,0,1-4.09,1.6,6.462,6.462,0,0,1-2.966-.654,4.792,4.792,0,0,1-1.99-1.815,5,5,0,0,1-.7-2.635,5.073,5.073,0,0,1,.691-2.625,4.841,4.841,0,0,1,1.9-1.824,5.579,5.579,0,0,1,2.7-.654,5.532,5.532,0,0,1,2.635.626,4.58,4.58,0,0,1,1.852,1.8,5.357,5.357,0,0,1,.672,2.717Q-373.883-490.139-373.938-489.421Zm-6.725-3.187a2.356,2.356,0,0,0-.811,1.511h4.883a2.382,2.382,0,0,0-.811-1.5,2.424,2.424,0,0,0-1.621-.562A2.477,2.477,0,0,0-380.663-492.608Z" transform="translate(396.93 498.946)" fill="#fff"/>
          <path id="Path_6740" data-name="Path 6740" d="M-360.173-502.391h2.874v13.67h-2.874Z" transform="translate(385.137 502.391)" fill="#fff"/>
          <path id="Path_6741" data-name="Path 6741" d="M-340.386-489.421h-7.5a2.332,2.332,0,0,0,.958,1.455,3.169,3.169,0,0,0,1.879.534,3.806,3.806,0,0,0,1.373-.23,3.324,3.324,0,0,0,1.115-.728l1.529,1.658a5.139,5.139,0,0,1-4.09,1.6,6.464,6.464,0,0,1-2.966-.654,4.8,4.8,0,0,1-1.99-1.815,5,5,0,0,1-.7-2.635,5.068,5.068,0,0,1,.691-2.625,4.84,4.84,0,0,1,1.9-1.824,5.577,5.577,0,0,1,2.7-.654,5.532,5.532,0,0,1,2.635.626,4.575,4.575,0,0,1,1.852,1.8,5.358,5.358,0,0,1,.672,2.717Q-340.331-490.139-340.386-489.421Zm-6.725-3.187a2.354,2.354,0,0,0-.811,1.511h4.882a2.378,2.378,0,0,0-.811-1.5,2.422,2.422,0,0,0-1.621-.562A2.475,2.475,0,0,0-347.111-492.608Z" transform="translate(380.549 498.946)" fill="#fff"/>
          <path id="Path_6742" data-name="Path 6742" d="M-320.241-494.238a4.2,4.2,0,0,1,1.234,3.308v5.656h-2.69v-1.234a3.2,3.2,0,0,1-3.021,1.382,4.7,4.7,0,0,1-1.981-.386,2.958,2.958,0,0,1-1.28-1.069,2.78,2.78,0,0,1-.442-1.548,2.583,2.583,0,0,1,1.041-2.174,5.3,5.3,0,0,1,3.215-.792h2.285a1.832,1.832,0,0,0-.571-1.446,2.516,2.516,0,0,0-1.713-.507,5.016,5.016,0,0,0-1.557.249,4.119,4.119,0,0,0-1.3.672l-1.032-2.008a6.247,6.247,0,0,1,1.944-.884,8.725,8.725,0,0,1,2.331-.313A5.161,5.161,0,0,1-320.241-494.238Zm-2.45,6.835a1.865,1.865,0,0,0,.811-1v-1.013h-1.971q-1.769,0-1.769,1.161a1.033,1.033,0,0,0,.433.875,1.947,1.947,0,0,0,1.188.322A2.5,2.5,0,0,0-322.691-487.4Z" transform="translate(369.634 498.946)" fill="#fff"/>
          <path id="Path_6743" data-name="Path 6743" d="M-304.942-485.432a6.293,6.293,0,0,1-1.879-.765l.958-2.063a6,6,0,0,0,1.6.691,6.718,6.718,0,0,0,1.842.267q1.824,0,1.824-.9a.639.639,0,0,0-.5-.608,7.366,7.366,0,0,0-1.529-.313,14.675,14.675,0,0,1-2.008-.424A3.11,3.11,0,0,1-306-490.4a2.409,2.409,0,0,1-.58-1.732,2.714,2.714,0,0,1,.544-1.667,3.5,3.5,0,0,1,1.584-1.133,6.767,6.767,0,0,1,2.46-.405,9.651,9.651,0,0,1,2.091.23,5.873,5.873,0,0,1,1.723.636l-.958,2.046a5.72,5.72,0,0,0-2.856-.737,2.912,2.912,0,0,0-1.382.258.759.759,0,0,0-.461.663.658.658,0,0,0,.5.645,8.81,8.81,0,0,0,1.584.35,17.187,17.187,0,0,1,1.99.433,2.994,2.994,0,0,1,1.345.838,2.382,2.382,0,0,1,.571,1.7,2.616,2.616,0,0,1-.553,1.64,3.529,3.529,0,0,1-1.612,1.115,7.185,7.185,0,0,1-2.515.4A9.628,9.628,0,0,1-304.942-485.432Z" transform="translate(359.088 498.946)" fill="#fff"/>
          <path id="Path_6744" data-name="Path 6744" d="M-276.883-489.421h-7.5a2.333,2.333,0,0,0,.958,1.455,3.169,3.169,0,0,0,1.879.534,3.806,3.806,0,0,0,1.373-.23,3.325,3.325,0,0,0,1.115-.728l1.529,1.658a5.139,5.139,0,0,1-4.09,1.6,6.464,6.464,0,0,1-2.966-.654,4.794,4.794,0,0,1-1.99-1.815,5,5,0,0,1-.7-2.635,5.068,5.068,0,0,1,.691-2.625,4.841,4.841,0,0,1,1.9-1.824,5.577,5.577,0,0,1,2.7-.654,5.532,5.532,0,0,1,2.635.626,4.576,4.576,0,0,1,1.852,1.8,5.358,5.358,0,0,1,.672,2.717Q-276.828-490.139-276.883-489.421Zm-6.725-3.187a2.354,2.354,0,0,0-.811,1.511h4.882a2.378,2.378,0,0,0-.811-1.5,2.423,2.423,0,0,0-1.621-.562A2.475,2.475,0,0,0-283.608-492.608Z" transform="translate(349.545 498.946)" fill="#fff"/>
        </g>
        <g id="Group_1449" data-name="Group 1449" transform="translate(201.206 54.447) rotate(45)">
          <path id="Path_6745" data-name="Path 6745" d="M-429.839-568.978a4.279,4.279,0,0,1,1.88,1.568A4.321,4.321,0,0,1-427.3-565a4.331,4.331,0,0,1-.659,2.4,4.2,4.2,0,0,1-1.88,1.568,7.028,7.028,0,0,1-2.877.543h-2.512v3.439h-2.886V-569.53h5.4A6.936,6.936,0,0,1-429.839-568.978Zm-1.06,5.568a1.953,1.953,0,0,0,.677-1.595,1.976,1.976,0,0,0-.677-1.612,3.034,3.034,0,0,0-1.978-.561h-2.352v4.33h2.352A3.031,3.031,0,0,0-430.9-563.41Z" transform="translate(438.115 570.278)" fill="#fff"/>
          <path id="Path_6746" data-name="Path 6746" d="M-412.159-571.042h2.78v13.22h-2.78Z" transform="translate(425.005 571.042)" fill="#fff"/>
          <path id="Path_6747" data-name="Path 6747" d="M-394.672-562.925a4.057,4.057,0,0,1,1.194,3.2v5.469h-2.6v-1.194A3.1,3.1,0,0,1-399-554.115a4.535,4.535,0,0,1-1.915-.374,2.857,2.857,0,0,1-1.238-1.034,2.686,2.686,0,0,1-.428-1.5,2.5,2.5,0,0,1,1.007-2.1,5.133,5.133,0,0,1,3.109-.766h2.209a1.772,1.772,0,0,0-.552-1.4,2.435,2.435,0,0,0-1.657-.489,4.851,4.851,0,0,0-1.506.24,4,4,0,0,0-1.256.65l-1-1.942a6.043,6.043,0,0,1,1.88-.855,8.441,8.441,0,0,1,2.254-.3A4.991,4.991,0,0,1-394.672-562.925Zm-2.37,6.61a1.8,1.8,0,0,0,.784-.971v-.98h-1.906q-1.711,0-1.711,1.122a1,1,0,0,0,.419.846,1.882,1.882,0,0,0,1.149.312A2.416,2.416,0,0,0-397.042-556.315Z" transform="translate(420.168 567.478)" fill="#fff"/>
          <path id="Path_6748" data-name="Path 6748" d="M-370.407-562.917a4.24,4.24,0,0,1,1.1,3.172v5.487h-2.779v-5.06a2.5,2.5,0,0,0-.5-1.7,1.83,1.83,0,0,0-1.443-.561,2.21,2.21,0,0,0-1.675.65,2.691,2.691,0,0,0-.624,1.933v4.739h-2.779v-9.586h2.655v1.122a3.7,3.7,0,0,1,1.372-.935,4.788,4.788,0,0,1,1.8-.329A3.945,3.945,0,0,1-370.407-562.917Z" transform="translate(408.313 567.478)" fill="#fff"/>
        </g>
        <g id="Group_1450" data-name="Group 1450" transform="translate(363.468 14.524) rotate(14)">
          <path id="Path_6749" data-name="Path 6749" d="M-185.278-647.238h5.709a8.017,8.017,0,0,1,3.617.781,5.853,5.853,0,0,1,2.441,2.2,6.187,6.187,0,0,1,.871,3.3,6.184,6.184,0,0,1-.871,3.3,5.843,5.843,0,0,1-2.441,2.2,8.024,8.024,0,0,1-3.617.781h-5.709Zm5.565,10.179a4.223,4.223,0,0,0,3.007-1.05,3.708,3.708,0,0,0,1.122-2.845,3.71,3.71,0,0,0-1.122-2.845,4.223,4.223,0,0,0-3.007-1.05h-2.657v7.791Z" transform="translate(185.278 647.992)" fill="#fff"/>
          <path id="Path_6750" data-name="Path 6750" d="M-147.253-635.931h-7.306a2.273,2.273,0,0,0,.933,1.419,3.09,3.09,0,0,0,1.831.52,3.7,3.7,0,0,0,1.337-.224,3.25,3.25,0,0,0,1.086-.709l1.49,1.616a5.007,5.007,0,0,1-3.985,1.562,6.3,6.3,0,0,1-2.89-.637,4.666,4.666,0,0,1-1.939-1.768,4.865,4.865,0,0,1-.682-2.567,4.938,4.938,0,0,1,.673-2.558,4.721,4.721,0,0,1,1.849-1.777,5.432,5.432,0,0,1,2.63-.637,5.393,5.393,0,0,1,2.567.61,4.466,4.466,0,0,1,1.8,1.751,5.218,5.218,0,0,1,.655,2.648Q-147.2-636.631-147.253-635.931Zm-6.552-3.106a2.293,2.293,0,0,0-.79,1.472h4.757a2.322,2.322,0,0,0-.79-1.463,2.362,2.362,0,0,0-1.58-.548A2.413,2.413,0,0,0-153.806-639.036Z" transform="translate(171.291 645.212)" fill="#fff"/>
          <path id="Path_6751" data-name="Path 6751" d="M-125.063-641.074a4.451,4.451,0,0,1,1.732,1.742,5.262,5.262,0,0,1,.628,2.611,5.263,5.263,0,0,1-.628,2.612,4.449,4.449,0,0,1-1.732,1.741,4.923,4.923,0,0,1-2.45.619,3.729,3.729,0,0,1-2.908-1.166v4.505h-2.8V-641.55h2.675v1.113a3.715,3.715,0,0,1,3.034-1.256A4.922,4.922,0,0,1-125.063-641.074Zm-1.167,6.3a2.712,2.712,0,0,0,.692-1.948,2.708,2.708,0,0,0-.692-1.947A2.33,2.33,0,0,0-128-639.4a2.329,2.329,0,0,0-1.768.727,2.706,2.706,0,0,0-.691,1.947,2.709,2.709,0,0,0,.691,1.948,2.332,2.332,0,0,0,1.768.727A2.334,2.334,0,0,0-126.231-634.773Z" transform="translate(159.181 645.212)" fill="#fff"/>
          <path id="Path_6752" data-name="Path 6752" d="M-108.383-648.75h2.8v13.32h-2.8Z" transform="translate(146.727 648.75)" fill="#fff"/>
          <path id="Path_6753" data-name="Path 6753" d="M-96.411-632.385a4.731,4.731,0,0,1-1.894-1.768,4.865,4.865,0,0,1-.682-2.567,4.869,4.869,0,0,1,.682-2.567,4.738,4.738,0,0,1,1.894-1.768,5.8,5.8,0,0,1,2.738-.637,5.745,5.745,0,0,1,2.729.637,4.759,4.759,0,0,1,1.885,1.768,4.873,4.873,0,0,1,.682,2.567,4.87,4.87,0,0,1-.682,2.567,4.752,4.752,0,0,1-1.885,1.768,5.733,5.733,0,0,1-2.729.637A5.783,5.783,0,0,1-96.411-632.385Zm4.506-2.387a2.711,2.711,0,0,0,.691-1.948,2.708,2.708,0,0,0-.691-1.947,2.33,2.33,0,0,0-1.768-.727,2.359,2.359,0,0,0-1.777.727,2.687,2.687,0,0,0-.7,1.947,2.691,2.691,0,0,0,.7,1.948,2.363,2.363,0,0,0,1.777.727A2.334,2.334,0,0,0-91.905-634.773Z" transform="translate(142.017 645.212)" fill="#fff"/>
          <path id="Path_6754" data-name="Path 6754" d="M-66.4-641.406l-4.362,10.25a5.046,5.046,0,0,1-1.643,2.352,4.024,4.024,0,0,1-2.361.682,4.916,4.916,0,0,1-1.49-.233,3.3,3.3,0,0,1-1.2-.647l1.023-1.992a2.42,2.42,0,0,0,.745.449,2.33,2.33,0,0,0,.835.161,1.484,1.484,0,0,0,.933-.278,2.369,2.369,0,0,0,.646-.924l.036-.09-4.183-9.73h2.89l2.711,6.552,2.729-6.552Z" transform="translate(131.224 645.068)" fill="#fff"/>
        </g>
        <g id="Group_1451" data-name="Group 1451" transform="translate(442.169 175.011) rotate(-81)">
          <path id="Path_6755" data-name="Path 6755" d="M-70.395-490.39a5.624,5.624,0,0,1-2.21-2.089,5.7,5.7,0,0,1-.8-2.992,5.7,5.7,0,0,1,.8-2.992,5.623,5.623,0,0,1,2.21-2.089,6.59,6.59,0,0,1,3.17-.758,6.545,6.545,0,0,1,3.161.758,5.7,5.7,0,0,1,2.21,2.089,5.659,5.659,0,0,1,.807,2.992,5.659,5.659,0,0,1-.807,2.992,5.7,5.7,0,0,1-2.21,2.089,6.545,6.545,0,0,1-3.161.758A6.591,6.591,0,0,1-70.395-490.39Zm4.976-1.928a3.3,3.3,0,0,0,1.266-1.282,3.77,3.77,0,0,0,.46-1.871,3.77,3.77,0,0,0-.46-1.871,3.3,3.3,0,0,0-1.266-1.282,3.584,3.584,0,0,0-1.807-.46,3.582,3.582,0,0,0-1.807.46,3.3,3.3,0,0,0-1.266,1.282,3.77,3.77,0,0,0-.46,1.871,3.77,3.77,0,0,0,.46,1.871,3.3,3.3,0,0,0,1.266,1.282,3.581,3.581,0,0,0,1.807.46A3.584,3.584,0,0,0-65.419-492.318Z" transform="translate(73.403 501.31)" fill="#fff"/>
          <path id="Path_6756" data-name="Path 6756" d="M-34.5-494.778a4,4,0,0,1,1.557,1.565,4.728,4.728,0,0,1,.565,2.347,4.728,4.728,0,0,1-.565,2.347,4,4,0,0,1-1.557,1.565,4.423,4.423,0,0,1-2.2.556,3.351,3.351,0,0,1-2.613-1.048v4.049h-2.517V-495.2h2.4v1a3.337,3.337,0,0,1,2.726-1.129A4.423,4.423,0,0,1-34.5-494.778Zm-1.049,5.662a2.435,2.435,0,0,0,.621-1.75,2.435,2.435,0,0,0-.621-1.75,2.1,2.1,0,0,0-1.588-.653,2.1,2.1,0,0,0-1.589.653,2.433,2.433,0,0,0-.621,1.75,2.433,2.433,0,0,0,.621,1.75,2.1,2.1,0,0,0,1.589.653A2.1,2.1,0,0,0-35.549-489.116Z" transform="translate(55.978 498.012)" fill="#fff"/>
          <path id="Path_6757" data-name="Path 6757" d="M-9.335-490.156H-15.9a2.043,2.043,0,0,0,.839,1.274,2.778,2.778,0,0,0,1.645.468,3.332,3.332,0,0,0,1.2-.2,2.91,2.91,0,0,0,.976-.637L-9.9-487.8a4.5,4.5,0,0,1-3.581,1.4,5.664,5.664,0,0,1-2.6-.573,4.2,4.2,0,0,1-1.742-1.589,4.374,4.374,0,0,1-.613-2.307,4.435,4.435,0,0,1,.6-2.3,4.238,4.238,0,0,1,1.661-1.6,4.878,4.878,0,0,1,2.363-.573,4.84,4.84,0,0,1,2.307.548,4.005,4.005,0,0,1,1.621,1.573,4.69,4.69,0,0,1,.589,2.379Q-9.286-490.785-9.335-490.156Zm-5.887-2.791a2.06,2.06,0,0,0-.71,1.323h4.274a2.081,2.081,0,0,0-.71-1.315,2.121,2.121,0,0,0-1.419-.492A2.167,2.167,0,0,0-15.222-492.947Z" transform="translate(43.062 498.012)" fill="#fff"/>
          <path id="Path_6758" data-name="Path 6758" d="M9.345-495.011a4.518,4.518,0,0,1,1.766-.323v2.323q-.419-.032-.565-.032a2.306,2.306,0,0,0-1.694.6,2.443,2.443,0,0,0-.613,1.815v4.1H5.724V-495.2h2.4v1.145A2.8,2.8,0,0,1,9.345-495.011Z" transform="translate(29.729 498.012)" fill="#fff"/>
          <path id="Path_6759" data-name="Path 6759" d="M26.89-494.374a3.673,3.673,0,0,1,1.081,2.9v4.952H25.616v-1.081a2.8,2.8,0,0,1-2.646,1.21,4.1,4.1,0,0,1-1.734-.339,2.585,2.585,0,0,1-1.121-.936,2.438,2.438,0,0,1-.387-1.355,2.26,2.26,0,0,1,.911-1.9,4.642,4.642,0,0,1,2.814-.694h2a1.6,1.6,0,0,0-.5-1.266,2.2,2.2,0,0,0-1.5-.444,4.381,4.381,0,0,0-1.363.218,3.607,3.607,0,0,0-1.137.589l-.9-1.758a5.452,5.452,0,0,1,1.7-.774,7.62,7.62,0,0,1,2.04-.274A4.516,4.516,0,0,1,26.89-494.374Zm-2.145,5.984a1.633,1.633,0,0,0,.71-.879v-.887H23.729q-1.548,0-1.548,1.016a.9.9,0,0,0,.379.766,1.708,1.708,0,0,0,1.041.282A2.191,2.191,0,0,0,24.745-488.39Z" transform="translate(21.999 498.012)" fill="#fff"/>
          <path id="Path_6760" data-name="Path 6760" d="M47.525-489.152a2.585,2.585,0,0,1-.911.411,4.628,4.628,0,0,1-1.137.137,3.378,3.378,0,0,1-2.4-.79,3.024,3.024,0,0,1-.847-2.323v-3.565H40.9v-1.936h1.339v-2.113h2.516v2.113h2.161v1.936H44.751v3.532a1.185,1.185,0,0,0,.282.847,1.046,1.046,0,0,0,.8.3,1.617,1.617,0,0,0,1.016-.323Z" transform="translate(10.316 500.217)" fill="#fff"/>
          <path id="Path_6761" data-name="Path 6761" d="M65.906-490.156H59.341a2.044,2.044,0,0,0,.838,1.274,2.778,2.778,0,0,0,1.646.468,3.334,3.334,0,0,0,1.2-.2,2.913,2.913,0,0,0,.975-.637l1.339,1.452a4.5,4.5,0,0,1-3.581,1.4,5.666,5.666,0,0,1-2.6-.573,4.2,4.2,0,0,1-1.742-1.589,4.374,4.374,0,0,1-.613-2.307,4.439,4.439,0,0,1,.6-2.3,4.241,4.241,0,0,1,1.661-1.6,4.879,4.879,0,0,1,2.363-.573,4.838,4.838,0,0,1,2.306.548,4,4,0,0,1,1.621,1.573,4.69,4.69,0,0,1,.589,2.379Q65.955-490.785,65.906-490.156Zm-5.887-2.791a2.056,2.056,0,0,0-.71,1.323h4.274a2.085,2.085,0,0,0-.71-1.315,2.123,2.123,0,0,0-1.419-.492A2.166,2.166,0,0,0,60.019-492.947Z" transform="translate(1.533 498.012)" fill="#fff"/>
        </g>
        <g id="Group_1452" data-name="Group 1452" transform="translate(316.86 191.534) rotate(14)">
          <path id="Path_6762" data-name="Path 6762" d="M-233.123-353.544l-.018-7.359-3.609,6.062h-1.279l-3.592-5.9v7.2h-2.663v-12.265h2.348l4.59,7.622,4.52-7.622h2.33l.036,12.265Z" transform="translate(244.284 367.333)" fill="#fff"/>
          <path id="Path_6763" data-name="Path 6763" d="M-209.226-351.18a4.624,4.624,0,0,1-1.848-1.726,4.751,4.751,0,0,1-.666-2.506,4.751,4.751,0,0,1,.666-2.505,4.624,4.624,0,0,1,1.848-1.726,5.657,5.657,0,0,1,2.672-.622,5.606,5.606,0,0,1,2.663.622,4.642,4.642,0,0,1,1.84,1.726,4.755,4.755,0,0,1,.666,2.505,4.756,4.756,0,0,1-.666,2.506,4.642,4.642,0,0,1-1.84,1.726,5.6,5.6,0,0,1-2.663.622A5.651,5.651,0,0,1-209.226-351.18Zm4.4-2.33a2.645,2.645,0,0,0,.675-1.9,2.645,2.645,0,0,0-.675-1.9,2.277,2.277,0,0,0-1.726-.71,2.3,2.3,0,0,0-1.735.71,2.625,2.625,0,0,0-.683,1.9,2.625,2.625,0,0,0,.683,1.9,2.3,2.3,0,0,0,1.735.71A2.277,2.277,0,0,0-204.828-353.511Z" transform="translate(227.579 364.487)" fill="#fff"/>
          <path id="Path_6764" data-name="Path 6764" d="M-178.161-359.214a4.17,4.17,0,0,1,1.078,3.119v5.4h-2.733v-4.976a2.46,2.46,0,0,0-.491-1.673,1.8,1.8,0,0,0-1.419-.552,2.175,2.175,0,0,0-1.647.64,2.647,2.647,0,0,0-.613,1.9v4.661h-2.733v-9.426h2.611v1.1a3.636,3.636,0,0,1,1.349-.92,4.71,4.71,0,0,1,1.77-.324A3.879,3.879,0,0,1-178.161-359.214Z" transform="translate(214.736 364.487)" fill="#fff"/>
          <path id="Path_6765" data-name="Path 6765" d="M-162.055-366.33a1.42,1.42,0,0,1-.473-1.086,1.421,1.421,0,0,1,.473-1.086,1.734,1.734,0,0,1,1.226-.438,1.777,1.777,0,0,1,1.226.421,1.348,1.348,0,0,1,.473,1.051,1.488,1.488,0,0,1-.473,1.13,1.713,1.713,0,0,1-1.226.447A1.734,1.734,0,0,1-162.055-366.33Zm-.14,1.752h2.733v9.426H-162.2Z" transform="translate(202.318 368.941)" fill="#fff"/>
          <path id="Path_6766" data-name="Path 6766" d="M-146.112-353.205a2.809,2.809,0,0,1-.99.447,5,5,0,0,1-1.235.149,3.67,3.67,0,0,1-2.6-.859,3.284,3.284,0,0,1-.92-2.523v-3.872h-1.454v-2.1h1.454v-2.3h2.734v2.3h2.347v2.1h-2.347v3.837a1.287,1.287,0,0,0,.306.92,1.135,1.135,0,0,0,.868.324,1.753,1.753,0,0,0,1.1-.35Z" transform="translate(197.588 366.539)" fill="#fff"/>
          <path id="Path_6767" data-name="Path 6767" d="M-134.886-351.18a4.62,4.62,0,0,1-1.848-1.726,4.751,4.751,0,0,1-.666-2.506,4.751,4.751,0,0,1,.666-2.505,4.62,4.62,0,0,1,1.848-1.726,5.656,5.656,0,0,1,2.672-.622,5.607,5.607,0,0,1,2.663.622,4.645,4.645,0,0,1,1.84,1.726,4.76,4.76,0,0,1,.666,2.505,4.76,4.76,0,0,1-.666,2.506,4.645,4.645,0,0,1-1.84,1.726,5.6,5.6,0,0,1-2.663.622A5.65,5.65,0,0,1-134.886-351.18Zm4.4-2.33a2.645,2.645,0,0,0,.675-1.9,2.645,2.645,0,0,0-.675-1.9,2.277,2.277,0,0,0-1.726-.71,2.3,2.3,0,0,0-1.735.71,2.625,2.625,0,0,0-.683,1.9,2.625,2.625,0,0,0,.683,1.9,2.3,2.3,0,0,0,1.735.71A2.277,2.277,0,0,0-130.488-353.511Z" transform="translate(189.42 364.487)" fill="#fff"/>
          <path id="Path_6768" data-name="Path 6768" d="M-108.448-359.915a4.911,4.911,0,0,1,1.919-.35v2.523q-.456-.035-.614-.035a2.5,2.5,0,0,0-1.839.657,2.654,2.654,0,0,0-.666,1.971v4.45h-2.733v-9.426h2.611v1.244A3.043,3.043,0,0,1-108.448-359.915Z" transform="translate(176.577 364.487)" fill="#fff"/>
        </g>
        <g id="Group_1453" data-name="Group 1453" transform="translate(102.203 203.511)">
          <path id="Path_6769" data-name="Path 6769" d="M-570.733-363.11h-4.58v-2.7h12.473v2.7h-4.58V-351.5h-3.313Z" transform="translate(575.313 365.809)" fill="#fff"/>
          <path id="Path_6770" data-name="Path 6770" d="M-542.5-353.7h-8.322a2.589,2.589,0,0,0,1.063,1.615,3.518,3.518,0,0,0,2.086.593,4.223,4.223,0,0,0,1.523-.256,3.691,3.691,0,0,0,1.237-.808l1.7,1.84a5.7,5.7,0,0,1-4.539,1.779,7.178,7.178,0,0,1-3.292-.726,5.321,5.321,0,0,1-2.208-2.014,5.545,5.545,0,0,1-.777-2.924,5.625,5.625,0,0,1,.767-2.914,5.371,5.371,0,0,1,2.106-2.024,6.19,6.19,0,0,1,3-.726,6.143,6.143,0,0,1,2.924.7,5.075,5.075,0,0,1,2.055,1.994,5.947,5.947,0,0,1,.746,3.016Q-542.443-354.5-542.5-353.7Zm-7.463-3.537a2.613,2.613,0,0,0-.9,1.677h5.419a2.638,2.638,0,0,0-.9-1.667,2.689,2.689,0,0,0-1.8-.624A2.747,2.747,0,0,0-549.968-357.239Z" transform="translate(566.122 363.414)" fill="#fff"/>
          <path id="Path_6771" data-name="Path 6771" d="M-529.667-349.274a7,7,0,0,1-2.086-.849l1.063-2.29a6.673,6.673,0,0,0,1.779.767,7.457,7.457,0,0,0,2.045.3q2.024,0,2.024-1a.709.709,0,0,0-.552-.675,8.174,8.174,0,0,0-1.7-.348,16.358,16.358,0,0,1-2.229-.47,3.452,3.452,0,0,1-1.523-.941,2.675,2.675,0,0,1-.644-1.922,3.011,3.011,0,0,1,.6-1.851,3.88,3.88,0,0,1,1.758-1.258,7.524,7.524,0,0,1,2.73-.45,10.717,10.717,0,0,1,2.321.256,6.486,6.486,0,0,1,1.912.706l-1.063,2.27a6.348,6.348,0,0,0-3.169-.818,3.226,3.226,0,0,0-1.534.286.842.842,0,0,0-.511.736.73.73,0,0,0,.552.716,9.763,9.763,0,0,0,1.758.388,18.945,18.945,0,0,1,2.208.481,3.325,3.325,0,0,1,1.493.93,2.643,2.643,0,0,1,.634,1.881,2.9,2.9,0,0,1-.613,1.82,3.916,3.916,0,0,1-1.789,1.237,7.975,7.975,0,0,1-2.791.44A10.69,10.69,0,0,1-529.667-349.274Z" transform="translate(556.495 363.414)" fill="#fff"/>
          <path id="Path_6772" data-name="Path 6772" d="M-504.665-351.358a3.281,3.281,0,0,1-1.156.521,5.834,5.834,0,0,1-1.441.174,4.282,4.282,0,0,1-3.036-1,3.832,3.832,0,0,1-1.074-2.944v-4.519h-1.7v-2.454h1.7v-2.679h3.19v2.679h2.739v2.454h-2.739v4.478a1.5,1.5,0,0,0,.358,1.074,1.323,1.323,0,0,0,1.012.378,2.046,2.046,0,0,0,1.288-.409Z" transform="translate(548.423 365.14)" fill="#fff"/>
        </g>
      </g>
    </g>
  </g>
</svg>
